<?xml version="1.0" encoding="utf-8"?>
<!-- Generator: Adobe Illustrator 27.5.0, SVG Export Plug-In . SVG Version: 6.00 Build 0)  -->
<svg version="1.1" xmlns="http://www.w3.org/2000/svg" xmlns:xlink="http://www.w3.org/1999/xlink" x="0px" y="0px"
	 viewBox="0 0 500 500.001" style="enable-background:new 0 0 500 500.001;" xml:space="preserve">
<g id="BACKGROUND">
	<rect style="fill:#F8FFFF;" width="500" height="500.001"/>
</g>
<g id="OBJECTS">
	<g>
		<g>
			<g>
				<path style="fill:#CCD2D6;" d="M287.66,323.097c-0.947-1.424-1.539-4.068-1.779-7.941c-0.234-3.875-0.355-8.1-0.355-12.688
					c0-5.691-0.037-10.908-0.115-15.65c-0.084-4.742-0.119-27.016-0.119-31.442c0-3.481,0-6.965,0-10.45c0-1.102,0-2.202,0-3.303
					c0-3.76,0-6.545,0-10.448c0-1.018,0-2.093,0-3.303h-26.082H165.55c0-1.129,0-2.962,0-5.469c0-0.997,0-2.089,0-3.303
					c0-3.545,0-7.516,0-11.873c0-5.845,0.04-11.974,0.12-18.374c0.078-6.403,0.197-35.364,0.355-40.901
					c0.158-3.634,0.947-6.639,2.37-9.009c1.423-2.371,3.161-4.227,5.218-5.572c2.054-1.341,4.346-2.331,6.878-2.964
					c2.524-0.629,4.897-1.105,7.111-1.423l7.398-1.88v-3.794h-78.055v3.303v2.372c4.108,0.475,7.785,1.304,11.024,2.49
					c3.238,1.186,5.964,3.123,8.179,5.81c0.951,1.107,1.661,2.649,2.134,4.622c0.475,1.979,0.831,4.19,1.067,6.639
					c0.238,2.453,0.355,5.098,0.355,7.943c0,7.789,0,25.876,0,28.23v3.303v42.934c0,1.08,0,2.183,0,3.303c0,3.307,0,6.79,0,10.448
					c0,4.743-0.038,27.058-0.117,31.564c-0.083,4.504-0.161,8.65-0.238,12.445c-0.078,3.797-0.117,6.799-0.117,9.012
					c0,2.531-0.084,5.178-0.238,7.943c-0.158,2.766-0.356,5.334-0.592,7.701c-0.235,2.373-0.553,4.469-0.948,6.285
					c-0.396,1.824-0.911,3.125-1.541,3.912c-1.898,2.217-4.665,4.074-8.3,5.574c-3.637,1.506-7.429,2.574-11.38,3.201v5.676h69.946
					l7.185-3.305v-2.371c-3.321-0.316-13.906-1.186-17.378-2.605c-3.48-1.424-6.169-3.48-8.064-6.17
					c-1.268-1.732-1.978-4.74-2.134-9.006c-0.161-4.27-0.24-8.693-0.24-13.281v-65.365h93.659c0,1.375,0,3.04,0,4.995
					c0,1.049,0,2.157,0,3.303c0,2.999,0,6.317,0,9.975c0,0.733,0,1.878,0,3.303c0,8.098,0,25.436,0,30.277
					c0,5.533-0.084,10.904-0.238,16.121c0,1.898-0.039,3.877-0.117,5.928c-0.084,2.053-0.201,4.033-0.356,5.926
					c-0.162,1.902-0.355,3.557-0.594,4.98c-0.238,1.422-0.514,2.373-0.828,2.844c-1.268,2.057-3.877,3.912-7.824,5.574
					c-3.957,1.662-8.857,2.729-14.703,3.201v5.676h72.795l7.398-3.305v-2.371c-4.113-0.473-15.307-1.338-18.781-2.605
					C292.48,328.47,289.713,326.257,287.66,323.097z"/>
				<path style="fill:#CCD2D6;" d="M376.367,173.1c0-9.485-2.295-17.702-6.875-24.66c-4.59-6.954-10.355-12.329-17.31-16.123
					c-7.113-3.949-14.701-6.438-22.764-7.469c-8.061-1.025-17.307-1.54-27.74-1.54c-2.844,0-6.4,0-10.668,0
					c-4.113,0-8.5,0.039-13.158,0.118c-4.67,0.082-9.647,0.12-14.387,0.12c-4.744,0-9.131,0.04-13.16,0.118
					c-4.033,0.081-7.551,0.119-10.551,0.119c-2.845,0-4.743,0-5.691,0v5.674c4.269,0.634,8.257,1.385,11.972,2.253
					c3.715,0.87,6.76,2.57,9.129,5.097c0.947,0.948,1.699,2.489,2.254,4.622c0.549,2.136,0.947,4.505,1.184,7.114
					c0.24,2.607,0.395,5.375,0.475,8.299c0.078,2.926,0.121,5.808,0.121,8.653v42.934c0,1.035,0,2.147,0,3.303
					c0,3.614,0,7.687,0,11.397c0,1.118,0,2.227,0,3.303h26.121c3.793,0,8.061,0,12.803,0c4.895,0,9.92-0.197,15.057-0.593
					c5.135-0.393,10.232-0.986,15.297-1.778c5.057-0.789,9.795-1.975,14.223-3.556c4.27-1.579,8.453-3.676,12.564-6.283
					c4.113-2.609,7.707-5.727,10.791-9.366c3.082-3.634,5.572-7.824,7.469-12.567c1.895-4.743,2.846-10.037,2.846-15.885
					c0-0.449-0.031-0.88-0.041-1.323C376.352,174.427,376.367,173.768,376.367,173.1z M342.697,198.825
					c-5.375,7.984-13.125,13.716-23.236,17.19c-4.902,1.743-10.195,2.81-15.887,3.203c-5.691,0.396-11.775,0.591-18.256,0.591
					c0-0.994,0-3.386,0-7.129c0-1.008,0-2.095,0-3.303c0-4.848,0-10.39,0-16.614c0-7.587,0.035-15.33,0.117-23.236
					c0.078-7.903,0.197-14.62,0.355-20.155c0.156-3.634,0.316-6.439,0.475-8.417c0.156-1.974,0.314-3.516,0.477-4.623
					c0.154-1.105,0.355-2.016,0.592-2.727c0.236-0.711,0.432-1.54,0.59-2.49c1.107-0.155,2.568-0.355,4.389-0.593
					c1.813-0.236,4.389-0.355,7.705-0.355c4.584,0,9.014,0.318,13.281,0.948c4.266,0.634,8.295,1.819,12.092,3.557
					c7.582,3.639,13.709,9.01,18.375,16.123c4.367,6.668,6.664,14.251,6.938,22.723C350.428,182.833,347.777,191.28,342.697,198.825
					z"/>
			</g>
			<g>
				<path style="fill:#4E5051;" d="M292.689,227.871c0,5.85,0,9.01,0,13.751c0,4.588,0,9.17,0,13.753
					c0,4.427,0.035,26.7,0.119,31.442c0.078,4.742,0.115,9.959,0.115,15.65c0,4.588,0.121,8.813,0.355,12.688
					c0.24,3.873,0.832,6.518,1.779,7.941c2.053,3.16,4.82,5.373,8.301,6.641c3.475,1.268,7.27,2.133,11.383,2.605v2.371h-72.795
					v-2.371c5.846-0.473,10.746-1.539,14.703-3.201c3.947-1.662,6.557-3.517,7.824-5.574c0.314-0.471,0.592-1.422,0.828-2.844
					c0.238-1.424,0.432-3.078,0.596-4.98c0.152-1.893,0.27-3.873,0.353-5.926c0.078-2.051,0.117-4.029,0.117-5.928
					c0.154-5.217,0.238-10.588,0.238-16.121c0-5.693,0-28.678,0-33.58c0-5.056,0-9.484,0-13.278c0-3.949,0-6.716,0-8.299h-93.659
					v68.669c0,4.588,0.079,9.012,0.24,13.281c0.155,4.266,0.866,7.273,2.134,9.006c1.895,2.689,4.584,4.746,8.063,6.17
					c3.472,1.42,6.873,2.289,10.193,2.605v2.371h-69.946v-2.371c3.951-0.627,7.743-1.695,11.38-3.201
					c3.635-1.5,6.402-3.357,8.3-5.574c0.63-0.787,1.145-2.088,1.542-3.912c0.395-1.816,0.712-3.912,0.947-6.285
					c0.235-2.367,0.434-4.936,0.592-7.701c0.154-2.766,0.239-5.412,0.239-7.943c0-2.213,0.038-5.215,0.116-9.012
					c0.077-3.795,0.155-7.941,0.238-12.445c0.079-4.506,0.117-26.821,0.117-31.564c0-4.898,0-9.484,0-13.751v-46.237
					c0-2.845,0-28.688,0-31.533c0-2.845-0.117-5.491-0.355-7.943c-0.236-2.449-0.592-4.66-1.067-6.639
					c-0.472-1.974-1.183-3.516-2.134-4.622c-2.215-2.687-4.94-4.624-8.179-5.81c-3.239-1.185-6.916-2.014-11.024-2.489v-2.371
					h70.656v2.371c-2.214,0.318-4.587,0.793-7.111,1.423c-2.532,0.633-4.824,1.623-6.878,2.964
					c-2.057,1.345-3.795,3.201-5.218,5.572c-1.423,2.37-2.212,5.375-2.37,9.009c-0.158,5.537-0.276,34.498-0.355,40.901
					c-0.08,6.401-0.12,12.529-0.12,18.375c0,5.691,0,10.751,0,15.176c0,4.267,0,7.194,0,8.772h93.659H292.689z"/>
				<path style="fill:#4E5051;" d="M266.596,223.129c0-4.897,0-10.433,0-14.7v-46.237c0-2.845-0.043-5.727-0.121-8.653
					c-0.08-2.924-0.234-5.692-0.475-8.299c-0.236-2.609-0.635-4.979-1.184-7.114c-0.555-2.134-1.305-3.674-2.254-4.622
					c-2.369-2.527-5.414-4.227-9.129-5.097c-3.715-0.868-7.703-1.62-11.973-2.253v-2.371c0.949,0,2.846,0,5.691,0
					c3,0,6.518-0.038,10.551-0.119c4.029-0.078,8.416-0.118,13.16-0.118c4.74,0,9.717-0.038,14.387-0.12
					c4.658-0.078,9.045-0.118,13.158-0.118c4.267,0,7.824,0,10.668,0c10.434,0,19.682,0.515,27.74,1.54
					c8.063,1.031,15.65,3.52,22.764,7.469c6.955,3.794,12.721,9.169,17.311,16.123c4.58,6.957,6.875,15.174,6.875,24.66
					c0,5.848-0.951,11.142-2.846,15.885c-1.896,4.743-4.387,8.933-7.469,12.567c-3.084,3.639-6.678,6.757-10.789,9.366
					c-4.113,2.607-8.297,4.704-12.565,6.283c-4.43,1.582-9.168,2.768-14.225,3.557c-5.064,0.792-10.162,1.385-15.297,1.778
					c-5.137,0.396-10.16,0.593-15.057,0.593c-4.742,0-9.008,0-12.803,0H266.596z M351.164,147.492
					c-4.666-7.113-10.791-12.484-18.375-16.123c-3.797-1.738-7.826-2.923-12.092-3.557c-4.268-0.63-8.697-0.948-13.281-0.948
					c-3.316,0-5.893,0.119-7.705,0.355c-1.82,0.237-3.281,0.438-4.387,0.593c-0.16,0.949-0.355,1.778-0.592,2.49
					c-0.236,0.711-0.438,1.623-0.592,2.727c-0.162,1.108-0.32,2.65-0.477,4.624c-0.158,1.978-0.318,4.783-0.475,8.416
					c-0.158,5.535-0.277,12.252-0.355,20.155c-0.08,7.906-0.117,15.649-0.117,23.236c0,7.587,0,14.226,0,19.917
					c0,5.691,0,9.17,0,10.432c6.48,0,12.564-0.195,18.256-0.591c5.691-0.393,10.984-1.46,15.887-3.203
					c10.111-3.474,17.861-9.206,23.238-17.19c5.369-7.979,8.059-16.952,8.059-26.911
					C358.156,162.748,355.822,154.606,351.164,147.492z"/>
			</g>
		</g>
	</g>
</g>
</svg>
